<mxfile host="app.diagrams.net" modified="2021-02-16T17:05:50.397Z" agent="5.0 (Macintosh; Intel Mac OS X 10_15_6) AppleWebKit/537.36 (KHTML, like Gecko) Chrome/88.0.4324.150 Safari/537.36 Edg/88.0.705.63" etag="j-N4XgLPYRF3dJjQxcnL" version="14.3.2" type="github">
  <diagram id="yLncHdiGyWdZU6cYif1F" name="ページ1">
    <mxGraphModel dx="1124" dy="910" grid="1" gridSize="10" guides="1" tooltips="1" connect="1" arrows="1" fold="1" page="1" pageScale="1" pageWidth="827" pageHeight="1169" math="0" shadow="0">
      <root>
        <mxCell id="0" />
        <mxCell id="1" parent="0" />
      </root>
    </mxGraphModel>
  </diagram>
</mxfile>
